<svg contentstyletype="text/css" height="818px" preserveAspectRatio="none" style="width:2145px;height:818px;background:#FFFFFF;" version="1.1" viewBox="0 0 2145 818" width="2145px" xmlns:xlink="http://www.w3.org/1999/xlink" xmlns="http://www.w3.org/2000/svg" zoomAndPan="magnify"><defs></defs><g><g id="cluster_vsomeip.endpoints"><path d="M8.5,6.532 L143.5,6.532 A3.75,3.75 0 0 1 146,9.032 L153,32.8039 L2135.5,32.8039 A2.5,2.5 0 0 1 2138,35.3039 L2138,809.032 A2.5,2.5 0 0 1 2135.5,811.532 L8.5,811.532 A2.5,2.5 0 0 1 6,809.032 L6,9.032 A2.5,2.5 0 0 1 8.5,6.532 " style="stroke:#000000;stroke-width:1.5;fill:none;"></path><line style="stroke:#000000;stroke-width:1.5;fill:none;" x1="6" x2="153" y1="32.8039" y2="32.8039"></line><text fill="#000000" font-family="sans-serif" font-size="14" font-weight="bold" lengthAdjust="spacing" textLength="134" x="10" y="24.7719">vsomeip.endpoints</text></g><g id="elem_endpoint_host"><rect codeline="3" fill="#F1F1F1" height="88.5438" id="endpoint_host" rx="2.5" ry="2.5" style="stroke:#181818;stroke-width:0.5;" width="134" x="1002" y="75.532"></rect><ellipse cx="1018.8" cy="91.532" fill="#B4A7E5" rx="11" ry="11" style="stroke:#181818;stroke-width:1.0;"></ellipse><path d="M1014.7219,87.2976 L1014.7219,85.1414 L1022.1125,85.1414 L1022.1125,87.2976 L1019.6438,87.2976 L1019.6438,95.3757 L1022.1125,95.3757 L1022.1125,97.532 L1014.7219,97.532 L1014.7219,95.3757 L1017.1906,95.3757 L1017.1906,87.2976 L1014.7219,87.2976 Z " fill="#000000"></path><text fill="#000000" font-family="sans-serif" font-size="14" font-style="italic" lengthAdjust="spacing" textLength="98" x="1033.2" y="97.636">endpoint_host</text><line style="stroke:#181818;stroke-width:0.5;" x1="1003" x2="1135" y1="107.532" y2="107.532"></line><line style="stroke:#181818;stroke-width:0.5;" x1="1003" x2="1135" y1="115.532" y2="115.532"></line><ellipse cx="1013" cy="126.532" fill="#84BE84" rx="3" ry="3" style="stroke:#038048;stroke-width:1.0;"></ellipse><text fill="#000000" font-family="sans-serif" font-size="14" font-style="italic" lengthAdjust="spacing" textLength="88" x="1022" y="135.7719">on_connect()</text><ellipse cx="1013" cy="146.8039" fill="#84BE84" rx="3" ry="3" style="stroke:#038048;stroke-width:1.0;"></ellipse><text fill="#000000" font-family="sans-serif" font-size="14" font-style="italic" lengthAdjust="spacing" textLength="108" x="1022" y="156.0438">on_disconnect()</text></g><g id="elem_endpoint_manager_base"><rect codeline="8" fill="#F1F1F1" height="230.4472" id="endpoint_manager_base" rx="2.5" ry="2.5" style="stroke:#181818;stroke-width:0.5;" width="454" x="842" y="258.532"></rect><ellipse cx="980.75" cy="274.532" fill="#ADD1B2" rx="11" ry="11" style="stroke:#181818;stroke-width:1.0;"></ellipse><path d="M983.7188,280.1726 Q983.1406,280.4695 982.5,280.6101 Q981.8594,280.7664 981.1563,280.7664 Q978.6563,280.7664 977.3281,279.1257 Q976.0156,277.4695 976.0156,274.3445 Q976.0156,271.2195 977.3281,269.5632 Q978.6563,267.907 981.1563,267.907 Q981.8594,267.907 982.5,268.0632 Q983.1563,268.2195 983.7188,268.5164 L983.7188,271.2351 Q983.0938,270.657 982.5,270.3914 Q981.9063,270.1101 981.2813,270.1101 Q979.9375,270.1101 979.25,271.1882 Q978.5625,272.2507 978.5625,274.3445 Q978.5625,276.4382 979.25,277.5164 Q979.9375,278.5789 981.2813,278.5789 Q981.9063,278.5789 982.5,278.3132 Q983.0938,278.032 983.7188,277.4539 L983.7188,280.1726 Z " fill="#000000"></path><text fill="#000000" font-family="sans-serif" font-size="14" lengthAdjust="spacing" textLength="168" x="1001.25" y="280.636">endpoint_manager_base</text><line style="stroke:#181818;stroke-width:0.5;" x1="843" x2="1295" y1="290.532" y2="290.532"></line><rect fill="none" height="6" style="stroke:#C82930;stroke-width:1.0;" width="6" x="850" y="298.532"></rect><text fill="#000000" font-family="sans-serif" font-size="14" lengthAdjust="spacing" textLength="203" x="862" y="310.7719">rm_ : runtime_manager_base*</text><rect fill="none" height="6" style="stroke:#C82930;stroke-width:1.0;" width="6" x="850" y="318.8039"></rect><text fill="#000000" font-family="sans-serif" font-size="14" lengthAdjust="spacing" textLength="186" x="862" y="331.0438">io_ : boost::asio::io_service&amp;</text><rect fill="none" height="6" style="stroke:#C82930;stroke-width:1.0;" width="6" x="850" y="339.0758"></rect><text fill="#000000" font-family="sans-serif" font-size="14" lengthAdjust="spacing" textLength="428" x="862" y="351.3157">local_endpoints : std::map&lt;client_t, std::shared_ptr&lt;endpoint&gt;&gt;</text><line style="stroke:#181818;stroke-width:0.5;" x1="843" x2="1295" y1="359.3477" y2="359.3477"></line><ellipse cx="853" cy="370.3477" fill="#84BE84" rx="3" ry="3" style="stroke:#038048;stroke-width:1.0;"></ellipse><text fill="#000000" font-family="sans-serif" font-size="14" lengthAdjust="spacing" textLength="88" x="862" y="379.5876">on_connect()</text><ellipse cx="853" cy="390.6196" fill="#84BE84" rx="3" ry="3" style="stroke:#038048;stroke-width:1.0;"></ellipse><text fill="#000000" font-family="sans-serif" font-size="14" lengthAdjust="spacing" textLength="108" x="862" y="399.8596">on_disconnect()</text><ellipse cx="853" cy="410.8915" fill="#84BE84" rx="3" ry="3" style="stroke:#038048;stroke-width:1.0;"></ellipse><text fill="#000000" font-family="sans-serif" font-size="14" lengthAdjust="spacing" textLength="90" x="862" y="420.1315">create_local()</text><ellipse cx="853" cy="431.1635" fill="#84BE84" rx="3" ry="3" style="stroke:#038048;stroke-width:1.0;"></ellipse><text fill="#000000" font-family="sans-serif" font-size="14" lengthAdjust="spacing" textLength="138" x="862" y="440.4034">create_local_server()</text><rect fill="#F24D5C" height="6" style="stroke:#C82930;stroke-width:1.0;" width="6" x="850" y="448.4354"></rect><text fill="#000000" font-family="sans-serif" font-size="14" lengthAdjust="spacing" textLength="160" x="862" y="460.6753">create_local_unlocked()</text><ellipse cx="853" cy="471.7073" fill="#84BE84" rx="3" ry="3" style="stroke:#038048;stroke-width:1.0;"></ellipse><text fill="#000000" font-family="sans-serif" font-size="14" lengthAdjust="spacing" textLength="146" x="862" y="480.9472">find_or_create_local()</text></g><g id="elem_endpoint_manager_impl"><rect codeline="20" fill="#F1F1F1" height="129.0876" id="endpoint_manager_impl" rx="2.5" ry="2.5" style="stroke:#181818;stroke-width:0.5;" width="198" x="970" y="555.532"></rect><ellipse cx="985" cy="571.532" fill="#ADD1B2" rx="11" ry="11" style="stroke:#181818;stroke-width:1.0;"></ellipse><path d="M987.9688,577.1726 Q987.3906,577.4695 986.75,577.6101 Q986.1094,577.7664 985.4063,577.7664 Q982.9063,577.7664 981.5781,576.1257 Q980.2656,574.4695 980.2656,571.3445 Q980.2656,568.2195 981.5781,566.5632 Q982.9063,564.907 985.4063,564.907 Q986.1094,564.907 986.75,565.0632 Q987.4063,565.2195 987.9688,565.5164 L987.9688,568.2351 Q987.3438,567.657 986.75,567.3914 Q986.1563,567.1101 985.5313,567.1101 Q984.1875,567.1101 983.5,568.1882 Q982.8125,569.2507 982.8125,571.3445 Q982.8125,573.4382 983.5,574.5164 Q984.1875,575.5789 985.5313,575.5789 Q986.1563,575.5789 986.75,575.3132 Q987.3438,575.032 987.9688,574.4539 L987.9688,577.1726 Z " fill="#000000"></path><text fill="#000000" font-family="sans-serif" font-size="14" lengthAdjust="spacing" textLength="166" x="999" y="577.636">endpoint_manager_impl</text><line style="stroke:#181818;stroke-width:0.5;" x1="971" x2="1167" y1="587.532" y2="587.532"></line><line style="stroke:#181818;stroke-width:0.5;" x1="971" x2="1167" y1="595.532" y2="595.532"></line><ellipse cx="981" cy="606.532" fill="#84BE84" rx="3" ry="3" style="stroke:#038048;stroke-width:1.0;"></ellipse><text fill="#000000" font-family="sans-serif" font-size="14" lengthAdjust="spacing" textLength="88" x="990" y="615.7719">on_connect()</text><ellipse cx="981" cy="626.8039" fill="#84BE84" rx="3" ry="3" style="stroke:#038048;stroke-width:1.0;"></ellipse><text fill="#000000" font-family="sans-serif" font-size="14" lengthAdjust="spacing" textLength="108" x="990" y="636.0438">on_disconnect()</text><ellipse cx="981" cy="647.0758" fill="#84BE84" rx="3" ry="3" style="stroke:#038048;stroke-width:1.0;"></ellipse><text fill="#000000" font-family="sans-serif" font-size="14" lengthAdjust="spacing" textLength="165" x="990" y="656.3157">create_client_endpoint()</text><ellipse cx="981" cy="667.3477" fill="#84BE84" rx="3" ry="3" style="stroke:#038048;stroke-width:1.0;"></ellipse><text fill="#000000" font-family="sans-serif" font-size="14" lengthAdjust="spacing" textLength="168" x="990" y="676.5876">create_server_endpoint()</text></g><g id="elem_endpoint"><rect codeline="27" fill="#F1F1F1" height="149.3596" id="endpoint" rx="2.5" ry="2.5" style="stroke:#181818;stroke-width:0.5;" width="93" x="548.5" y="45.532"></rect><ellipse cx="563.5" cy="61.532" fill="#B4A7E5" rx="11" ry="11" style="stroke:#181818;stroke-width:1.0;"></ellipse><path d="M559.4219,57.2976 L559.4219,55.1414 L566.8125,55.1414 L566.8125,57.2976 L564.3438,57.2976 L564.3438,65.3757 L566.8125,65.3757 L566.8125,67.532 L559.4219,67.532 L559.4219,65.3757 L561.8906,65.3757 L561.8906,57.2976 L559.4219,57.2976 Z " fill="#000000"></path><text fill="#000000" font-family="sans-serif" font-size="14" font-style="italic" lengthAdjust="spacing" textLength="61" x="577.5" y="67.636">endpoint</text><line style="stroke:#181818;stroke-width:0.5;" x1="549.5" x2="640.5" y1="77.532" y2="77.532"></line><line style="stroke:#181818;stroke-width:0.5;" x1="549.5" x2="640.5" y1="85.532" y2="85.532"></line><ellipse cx="559.5" cy="96.532" fill="#84BE84" rx="3" ry="3" style="stroke:#038048;stroke-width:1.0;"></ellipse><text fill="#000000" font-family="sans-serif" font-size="14" font-style="italic" lengthAdjust="spacing" textLength="40" x="568.5" y="105.7719">start()</text><ellipse cx="559.5" cy="116.8039" fill="#84BE84" rx="3" ry="3" style="stroke:#038048;stroke-width:1.0;"></ellipse><text fill="#000000" font-family="sans-serif" font-size="14" font-style="italic" lengthAdjust="spacing" textLength="39" x="568.5" y="126.0438">stop()</text><ellipse cx="559.5" cy="137.0758" fill="#84BE84" rx="3" ry="3" style="stroke:#038048;stroke-width:1.0;"></ellipse><text fill="#000000" font-family="sans-serif" font-size="14" font-style="italic" lengthAdjust="spacing" textLength="43" x="568.5" y="146.3157">send()</text><ellipse cx="559.5" cy="157.3477" fill="#84BE84" rx="3" ry="3" style="stroke:#038048;stroke-width:1.0;"></ellipse><text fill="#000000" font-family="sans-serif" font-size="14" font-style="italic" lengthAdjust="spacing" textLength="64" x="568.5" y="166.5876">send_to()</text><ellipse cx="559.5" cy="177.6196" fill="#84BE84" rx="3" ry="3" style="stroke:#038048;stroke-width:1.0;"></ellipse><text fill="#000000" font-family="sans-serif" font-size="14" font-style="italic" lengthAdjust="spacing" textLength="57" x="568.5" y="186.8596">receive()</text></g><g id="elem_server_endpoint_impl"><rect codeline="35" fill="#F1F1F1" height="205.5514" id="server_endpoint_impl" rx="2.5" ry="2.5" style="stroke:#181818;stroke-width:0.5;" width="179" x="1733.5" y="270.032"></rect><ellipse cx="1748.5" cy="293.856" fill="#ADD1B2" rx="11" ry="11" style="stroke:#181818;stroke-width:1.0;"></ellipse><path d="M1751.4688,299.4966 Q1750.8906,299.7935 1750.25,299.9341 Q1749.6094,300.0904 1748.9063,300.0904 Q1746.4063,300.0904 1745.0781,298.4497 Q1743.7656,296.7935 1743.7656,293.6685 Q1743.7656,290.5435 1745.0781,288.8872 Q1746.4063,287.231 1748.9063,287.231 Q1749.6094,287.231 1750.25,287.3872 Q1750.9063,287.5435 1751.4688,287.8404 L1751.4688,290.5591 Q1750.8438,289.981 1750.25,289.7154 Q1749.6563,289.4341 1749.0313,289.4341 Q1747.6875,289.4341 1747,290.5122 Q1746.3125,291.5747 1746.3125,293.6685 Q1746.3125,295.7622 1747,296.8404 Q1747.6875,297.9029 1749.0313,297.9029 Q1749.6563,297.9029 1750.25,297.6372 Q1750.8438,297.356 1751.4688,296.7779 L1751.4688,299.4966 Z " fill="#000000"></path><text fill="#000000" font-family="sans-serif" font-size="12" font-style="italic" lengthAdjust="spacing" textLength="60" x="1806" y="288.9521">«Protocol»</text><text fill="#000000" font-family="sans-serif" font-size="14" lengthAdjust="spacing" textLength="147" x="1762.5" y="308.648">server_endpoint_impl</text><line style="stroke:#181818;stroke-width:0.5;" x1="1734.5" x2="1911.5" y1="317.68" y2="317.68"></line><line style="stroke:#181818;stroke-width:0.5;" x1="1734.5" x2="1911.5" y1="325.68" y2="325.68"></line><ellipse cx="1744.5" cy="336.68" fill="#84BE84" rx="3" ry="3" style="stroke:#038048;stroke-width:1.0;"></ellipse><text fill="#000000" font-family="sans-serif" font-size="14" lengthAdjust="spacing" textLength="43" x="1753.5" y="345.9199">send()</text><ellipse cx="1744.5" cy="356.9519" fill="#84BE84" rx="3" ry="3" style="stroke:#038048;stroke-width:1.0;"></ellipse><text fill="#000000" font-family="sans-serif" font-size="14" lengthAdjust="spacing" textLength="57" x="1753.5" y="366.1919">receive()</text><ellipse cx="1744.5" cy="377.2238" fill="#84BE84" rx="3" ry="3" style="stroke:#038048;stroke-width:1.0;"></ellipse><text fill="#000000" font-family="sans-serif" font-size="14" font-style="italic" lengthAdjust="spacing" textLength="103" x="1753.5" y="386.4638">send_queued()</text><ellipse cx="1744.5" cy="397.4958" fill="#84BE84" rx="3" ry="3" style="stroke:#038048;stroke-width:1.0;"></ellipse><text fill="#000000" font-family="sans-serif" font-size="14" lengthAdjust="spacing" textLength="95" x="1753.5" y="406.7357">connect_cbk()</text><ellipse cx="1744.5" cy="417.7677" fill="#84BE84" rx="3" ry="3" style="stroke:#038048;stroke-width:1.0;"></ellipse><text fill="#000000" font-family="sans-serif" font-size="14" lengthAdjust="spacing" textLength="75" x="1753.5" y="427.0076">send_cbk()</text><ellipse cx="1744.5" cy="438.0396" fill="#84BE84" rx="3" ry="3" style="stroke:#038048;stroke-width:1.0;"></ellipse><text fill="#000000" font-family="sans-serif" font-size="14" lengthAdjust="spacing" textLength="44" x="1753.5" y="447.2795">flush()</text><ellipse cx="1744.5" cy="458.3115" fill="#84BE84" rx="3" ry="3" style="stroke:#038048;stroke-width:1.0;"></ellipse><text fill="#000000" font-family="sans-serif" font-size="14" lengthAdjust="spacing" textLength="76" x="1753.5" y="467.5514">flush_cbk()</text></g><g id="elem_local_uds_server_endpoint_impl"><rect codeline="49" fill="#F1F1F1" height="48" id="local_uds_server_endpoint_impl" rx="2.5" ry="2.5" style="stroke:#181818;stroke-width:0.5;" width="449" x="1598.5" y="595.532"></rect><ellipse cx="1613.5" cy="611.532" fill="#ADD1B2" rx="11" ry="11" style="stroke:#181818;stroke-width:1.0;"></ellipse><path d="M1616.4688,617.1726 Q1615.8906,617.4695 1615.25,617.6101 Q1614.6094,617.7664 1613.9063,617.7664 Q1611.4063,617.7664 1610.0781,616.1257 Q1608.7656,614.4695 1608.7656,611.3445 Q1608.7656,608.2195 1610.0781,606.5632 Q1611.4063,604.907 1613.9063,604.907 Q1614.6094,604.907 1615.25,605.0632 Q1615.9063,605.2195 1616.4688,605.5164 L1616.4688,608.2351 Q1615.8438,607.657 1615.25,607.3914 Q1614.6563,607.1101 1614.0313,607.1101 Q1612.6875,607.1101 1612,608.1882 Q1611.3125,609.2507 1611.3125,611.3445 Q1611.3125,613.4382 1612,614.5164 Q1612.6875,615.5789 1614.0313,615.5789 Q1614.6563,615.5789 1615.25,615.3132 Q1615.8438,615.032 1616.4688,614.4539 L1616.4688,617.1726 Z " fill="#000000"></path><text fill="#000000" font-family="sans-serif" font-size="14" lengthAdjust="spacing" textLength="219" x="1627.5" y="617.636">local_uds_server_endpoint_impl</text><rect fill="#FFFFFF" height="19.3761" style="stroke:#000000;stroke-width:1.0;stroke-dasharray:2.0,2.0;" width="196" x="1854.5" y="592.532"></rect><text fill="#000000" font-family="sans-serif" font-size="12" font-style="italic" lengthAdjust="spacing" textLength="194" x="1855.5" y="607.4521">boost::asio::local::stream_protocol</text><line style="stroke:#181818;stroke-width:0.5;" x1="1599.5" x2="2046.5" y1="627.532" y2="627.532"></line><line style="stroke:#181818;stroke-width:0.5;" x1="1599.5" x2="2046.5" y1="635.532" y2="635.532"></line></g><g id="elem_local_tcp_server_endpoint_impl"><rect codeline="53" fill="#F1F1F1" height="48" id="local_tcp_server_endpoint_impl" rx="2.5" ry="2.5" style="stroke:#181818;stroke-width:0.5;" width="352" x="1211" y="595.532"></rect><ellipse cx="1226" cy="611.532" fill="#ADD1B2" rx="11" ry="11" style="stroke:#181818;stroke-width:1.0;"></ellipse><path d="M1228.9688,617.1726 Q1228.3906,617.4695 1227.75,617.6101 Q1227.1094,617.7664 1226.4063,617.7664 Q1223.9063,617.7664 1222.5781,616.1257 Q1221.2656,614.4695 1221.2656,611.3445 Q1221.2656,608.2195 1222.5781,606.5632 Q1223.9063,604.907 1226.4063,604.907 Q1227.1094,604.907 1227.75,605.0632 Q1228.4063,605.2195 1228.9688,605.5164 L1228.9688,608.2351 Q1228.3438,607.657 1227.75,607.3914 Q1227.1563,607.1101 1226.5313,607.1101 Q1225.1875,607.1101 1224.5,608.1882 Q1223.8125,609.2507 1223.8125,611.3445 Q1223.8125,613.4382 1224.5,614.5164 Q1225.1875,615.5789 1226.5313,615.5789 Q1227.1563,615.5789 1227.75,615.3132 Q1228.3438,615.032 1228.9688,614.4539 L1228.9688,617.1726 Z " fill="#000000"></path><text fill="#000000" font-family="sans-serif" font-size="14" lengthAdjust="spacing" textLength="215" x="1240" y="617.636">local_tcp_server_endpoint_impl</text><rect fill="#FFFFFF" height="19.3761" style="stroke:#000000;stroke-width:1.0;stroke-dasharray:2.0,2.0;" width="103" x="1463" y="592.532"></rect><text fill="#000000" font-family="sans-serif" font-size="12" font-style="italic" lengthAdjust="spacing" textLength="101" x="1464" y="607.4521">boost::asio::ip::tcp</text><line style="stroke:#181818;stroke-width:0.5;" x1="1212" x2="1562" y1="627.532" y2="627.532"></line><line style="stroke:#181818;stroke-width:0.5;" x1="1212" x2="1562" y1="635.532" y2="635.532"></line></g><g id="elem_tcp_server_endpoint_impl"><rect codeline="62" fill="#F1F1F1" height="48" id="tcp_server_endpoint_impl" rx="2.5" ry="2.5" style="stroke:#181818;stroke-width:0.5;" width="313" x="1672.5" y="747.532"></rect><ellipse cx="1687.5" cy="763.532" fill="#ADD1B2" rx="11" ry="11" style="stroke:#181818;stroke-width:1.0;"></ellipse><path d="M1690.4688,769.1726 Q1689.8906,769.4695 1689.25,769.6101 Q1688.6094,769.7664 1687.9063,769.7664 Q1685.4063,769.7664 1684.0781,768.1257 Q1682.7656,766.4695 1682.7656,763.3445 Q1682.7656,760.2195 1684.0781,758.5632 Q1685.4063,756.907 1687.9063,756.907 Q1688.6094,756.907 1689.25,757.0632 Q1689.9063,757.2195 1690.4688,757.5164 L1690.4688,760.2351 Q1689.8438,759.657 1689.25,759.3914 Q1688.6563,759.1101 1688.0313,759.1101 Q1686.6875,759.1101 1686,760.1882 Q1685.3125,761.2507 1685.3125,763.3445 Q1685.3125,765.4382 1686,766.5164 Q1686.6875,767.5789 1688.0313,767.5789 Q1688.6563,767.5789 1689.25,767.3132 Q1689.8438,767.032 1690.4688,766.4539 L1690.4688,769.1726 Z " fill="#000000"></path><text fill="#000000" font-family="sans-serif" font-size="14" lengthAdjust="spacing" textLength="176" x="1701.5" y="769.636">tcp_server_endpoint_impl</text><rect fill="#FFFFFF" height="19.3761" style="stroke:#000000;stroke-width:1.0;stroke-dasharray:2.0,2.0;" width="103" x="1885.5" y="744.532"></rect><text fill="#000000" font-family="sans-serif" font-size="12" font-style="italic" lengthAdjust="spacing" textLength="101" x="1886.5" y="759.4521">boost::asio::ip::tcp</text><line style="stroke:#181818;stroke-width:0.5;" x1="1673.5" x2="1984.5" y1="779.532" y2="779.532"></line><line style="stroke:#181818;stroke-width:0.5;" x1="1673.5" x2="1984.5" y1="787.532" y2="787.532"></line></g><g id="elem_udp_server_endpoint_impl"><rect codeline="70" fill="#F1F1F1" height="48" id="udp_server_endpoint_impl" rx="2.5" ry="2.5" style="stroke:#181818;stroke-width:0.5;" width="322" x="1044" y="747.532"></rect><ellipse cx="1059" cy="763.532" fill="#ADD1B2" rx="11" ry="11" style="stroke:#181818;stroke-width:1.0;"></ellipse><path d="M1061.9688,769.1726 Q1061.3906,769.4695 1060.75,769.6101 Q1060.1094,769.7664 1059.4063,769.7664 Q1056.9063,769.7664 1055.5781,768.1257 Q1054.2656,766.4695 1054.2656,763.3445 Q1054.2656,760.2195 1055.5781,758.5632 Q1056.9063,756.907 1059.4063,756.907 Q1060.1094,756.907 1060.75,757.0632 Q1061.4063,757.2195 1061.9688,757.5164 L1061.9688,760.2351 Q1061.3438,759.657 1060.75,759.3914 Q1060.1563,759.1101 1059.5313,759.1101 Q1058.1875,759.1101 1057.5,760.1882 Q1056.8125,761.2507 1056.8125,763.3445 Q1056.8125,765.4382 1057.5,766.5164 Q1058.1875,767.5789 1059.5313,767.5789 Q1060.1563,767.5789 1060.75,767.3132 Q1061.3438,767.032 1061.9688,766.4539 L1061.9688,769.1726 Z " fill="#000000"></path><text fill="#000000" font-family="sans-serif" font-size="14" lengthAdjust="spacing" textLength="182" x="1073" y="769.636">udp_server_endpoint_impl</text><rect fill="#FFFFFF" height="19.3761" style="stroke:#000000;stroke-width:1.0;stroke-dasharray:2.0,2.0;" width="106" x="1263" y="744.532"></rect><text fill="#000000" font-family="sans-serif" font-size="12" font-style="italic" lengthAdjust="spacing" textLength="104" x="1264" y="759.4521">boost::asio::ip::udp</text><line style="stroke:#181818;stroke-width:0.5;" x1="1045" x2="1365" y1="779.532" y2="779.532"></line><line style="stroke:#181818;stroke-width:0.5;" x1="1045" x2="1365" y1="787.532" y2="787.532"></line></g><g id="elem_client_endpoint_impl"><rect codeline="74" fill="#F1F1F1" height="225.8233" id="client_endpoint_impl" rx="2.5" ry="2.5" style="stroke:#181818;stroke-width:0.5;" width="176" x="183" y="260.032"></rect><ellipse cx="198" cy="283.856" fill="#ADD1B2" rx="11" ry="11" style="stroke:#181818;stroke-width:1.0;"></ellipse><path d="M200.9688,289.4966 Q200.3906,289.7935 199.75,289.9341 Q199.1094,290.0904 198.4063,290.0904 Q195.9063,290.0904 194.5781,288.4497 Q193.2656,286.7935 193.2656,283.6685 Q193.2656,280.5435 194.5781,278.8872 Q195.9063,277.231 198.4063,277.231 Q199.1094,277.231 199.75,277.3872 Q200.4063,277.5435 200.9688,277.8404 L200.9688,280.5591 Q200.3438,279.981 199.75,279.7154 Q199.1563,279.4341 198.5313,279.4341 Q197.1875,279.4341 196.5,280.5122 Q195.8125,281.5747 195.8125,283.6685 Q195.8125,285.7622 196.5,286.8404 Q197.1875,287.9029 198.5313,287.9029 Q199.1563,287.9029 199.75,287.6372 Q200.3438,287.356 200.9688,286.7779 L200.9688,289.4966 Z " fill="#000000"></path><text fill="#000000" font-family="sans-serif" font-size="12" font-style="italic" lengthAdjust="spacing" textLength="60" x="254" y="278.9521">«Protocol»</text><text fill="#000000" font-family="sans-serif" font-size="14" lengthAdjust="spacing" textLength="144" x="212" y="298.648">client_endpoint_impl</text><line style="stroke:#181818;stroke-width:0.5;" x1="184" x2="358" y1="307.68" y2="307.68"></line><line style="stroke:#181818;stroke-width:0.5;" x1="184" x2="358" y1="315.68" y2="315.68"></line><ellipse cx="194" cy="326.68" fill="#84BE84" rx="3" ry="3" style="stroke:#038048;stroke-width:1.0;"></ellipse><text fill="#000000" font-family="sans-serif" font-size="14" lengthAdjust="spacing" textLength="43" x="203" y="335.9199">send()</text><ellipse cx="194" cy="346.9519" fill="#84BE84" rx="3" ry="3" style="stroke:#038048;stroke-width:1.0;"></ellipse><text fill="#000000" font-family="sans-serif" font-size="14" lengthAdjust="spacing" textLength="64" x="203" y="356.1919">send_to()</text><ellipse cx="194" cy="367.2238" fill="#84BE84" rx="3" ry="3" style="stroke:#038048;stroke-width:1.0;"></ellipse><text fill="#000000" font-family="sans-serif" font-size="14" lengthAdjust="spacing" textLength="57" x="203" y="376.4638">receive()</text><ellipse cx="194" cy="387.4958" fill="#84BE84" rx="3" ry="3" style="stroke:#038048;stroke-width:1.0;"></ellipse><text fill="#000000" font-family="sans-serif" font-size="14" font-style="italic" lengthAdjust="spacing" textLength="103" x="203" y="396.7357">send_queued()</text><ellipse cx="194" cy="407.7677" fill="#84BE84" rx="3" ry="3" style="stroke:#038048;stroke-width:1.0;"></ellipse><text fill="#000000" font-family="sans-serif" font-size="14" lengthAdjust="spacing" textLength="95" x="203" y="417.0076">connect_cbk()</text><ellipse cx="194" cy="428.0396" fill="#84BE84" rx="3" ry="3" style="stroke:#038048;stroke-width:1.0;"></ellipse><text fill="#000000" font-family="sans-serif" font-size="14" lengthAdjust="spacing" textLength="75" x="203" y="437.2795">send_cbk()</text><ellipse cx="194" cy="448.3115" fill="#84BE84" rx="3" ry="3" style="stroke:#038048;stroke-width:1.0;"></ellipse><text fill="#000000" font-family="sans-serif" font-size="14" lengthAdjust="spacing" textLength="44" x="203" y="457.5514">flush()</text><ellipse cx="194" cy="468.5834" fill="#84BE84" rx="3" ry="3" style="stroke:#038048;stroke-width:1.0;"></ellipse><text fill="#000000" font-family="sans-serif" font-size="14" lengthAdjust="spacing" textLength="76" x="203" y="477.8233">flush_cbk()</text></g><g id="elem_local_uds_client_endpoint_impl"><rect codeline="85" fill="#F1F1F1" height="48" id="local_uds_client_endpoint_impl" rx="2.5" ry="2.5" style="stroke:#181818;stroke-width:0.5;" width="446" x="481" y="595.532"></rect><ellipse cx="496" cy="611.532" fill="#ADD1B2" rx="11" ry="11" style="stroke:#181818;stroke-width:1.0;"></ellipse><path d="M498.9688,617.1726 Q498.3906,617.4695 497.75,617.6101 Q497.1094,617.7664 496.4063,617.7664 Q493.9063,617.7664 492.5781,616.1257 Q491.2656,614.4695 491.2656,611.3445 Q491.2656,608.2195 492.5781,606.5632 Q493.9063,604.907 496.4063,604.907 Q497.1094,604.907 497.75,605.0632 Q498.4063,605.2195 498.9688,605.5164 L498.9688,608.2351 Q498.3438,607.657 497.75,607.3914 Q497.1563,607.1101 496.5313,607.1101 Q495.1875,607.1101 494.5,608.1882 Q493.8125,609.2507 493.8125,611.3445 Q493.8125,613.4382 494.5,614.5164 Q495.1875,615.5789 496.5313,615.5789 Q497.1563,615.5789 497.75,615.3132 Q498.3438,615.032 498.9688,614.4539 L498.9688,617.1726 Z " fill="#000000"></path><text fill="#000000" font-family="sans-serif" font-size="14" lengthAdjust="spacing" textLength="216" x="510" y="617.636">local_uds_client_endpoint_impl</text><rect fill="#FFFFFF" height="19.3761" style="stroke:#000000;stroke-width:1.0;stroke-dasharray:2.0,2.0;" width="196" x="734" y="592.532"></rect><text fill="#000000" font-family="sans-serif" font-size="12" font-style="italic" lengthAdjust="spacing" textLength="194" x="735" y="607.4521">boost::asio::local::stream_protocol</text><line style="stroke:#181818;stroke-width:0.5;" x1="482" x2="926" y1="627.532" y2="627.532"></line><line style="stroke:#181818;stroke-width:0.5;" x1="482" x2="926" y1="635.532" y2="635.532"></line></g><g id="elem_local_tcp_client_endpoint_impl"><rect codeline="89" fill="#F1F1F1" height="48" id="local_tcp_client_endpoint_impl" rx="2.5" ry="2.5" style="stroke:#181818;stroke-width:0.5;" width="349" x="96.5" y="595.532"></rect><ellipse cx="111.5" cy="611.532" fill="#ADD1B2" rx="11" ry="11" style="stroke:#181818;stroke-width:1.0;"></ellipse><path d="M114.4688,617.1726 Q113.8906,617.4695 113.25,617.6101 Q112.6094,617.7664 111.9063,617.7664 Q109.4063,617.7664 108.0781,616.1257 Q106.7656,614.4695 106.7656,611.3445 Q106.7656,608.2195 108.0781,606.5632 Q109.4063,604.907 111.9063,604.907 Q112.6094,604.907 113.25,605.0632 Q113.9063,605.2195 114.4688,605.5164 L114.4688,608.2351 Q113.8438,607.657 113.25,607.3914 Q112.6563,607.1101 112.0313,607.1101 Q110.6875,607.1101 110,608.1882 Q109.3125,609.2507 109.3125,611.3445 Q109.3125,613.4382 110,614.5164 Q110.6875,615.5789 112.0313,615.5789 Q112.6563,615.5789 113.25,615.3132 Q113.8438,615.032 114.4688,614.4539 L114.4688,617.1726 Z " fill="#000000"></path><text fill="#000000" font-family="sans-serif" font-size="14" lengthAdjust="spacing" textLength="212" x="125.5" y="617.636">local_tcp_client_endpoint_impl</text><rect fill="#FFFFFF" height="19.3761" style="stroke:#000000;stroke-width:1.0;stroke-dasharray:2.0,2.0;" width="103" x="345.5" y="592.532"></rect><text fill="#000000" font-family="sans-serif" font-size="12" font-style="italic" lengthAdjust="spacing" textLength="101" x="346.5" y="607.4521">boost::asio::ip::tcp</text><line style="stroke:#181818;stroke-width:0.5;" x1="97.5" x2="444.5" y1="627.532" y2="627.532"></line><line style="stroke:#181818;stroke-width:0.5;" x1="97.5" x2="444.5" y1="635.532" y2="635.532"></line></g><g id="elem_tcp_client_endpoint_impl"><rect codeline="103" fill="#F1F1F1" height="48" id="tcp_client_endpoint_impl" rx="2.5" ry="2.5" style="stroke:#181818;stroke-width:0.5;" width="310" x="653" y="747.532"></rect><ellipse cx="668" cy="763.532" fill="#ADD1B2" rx="11" ry="11" style="stroke:#181818;stroke-width:1.0;"></ellipse><path d="M670.9688,769.1726 Q670.3906,769.4695 669.75,769.6101 Q669.1094,769.7664 668.4063,769.7664 Q665.9063,769.7664 664.5781,768.1257 Q663.2656,766.4695 663.2656,763.3445 Q663.2656,760.2195 664.5781,758.5632 Q665.9063,756.907 668.4063,756.907 Q669.1094,756.907 669.75,757.0632 Q670.4063,757.2195 670.9688,757.5164 L670.9688,760.2351 Q670.3438,759.657 669.75,759.3914 Q669.1563,759.1101 668.5313,759.1101 Q667.1875,759.1101 666.5,760.1882 Q665.8125,761.2507 665.8125,763.3445 Q665.8125,765.4382 666.5,766.5164 Q667.1875,767.5789 668.5313,767.5789 Q669.1563,767.5789 669.75,767.3132 Q670.3438,767.032 670.9688,766.4539 L670.9688,769.1726 Z " fill="#000000"></path><text fill="#000000" font-family="sans-serif" font-size="14" lengthAdjust="spacing" textLength="173" x="682" y="769.636">tcp_client_endpoint_impl</text><rect fill="#FFFFFF" height="19.3761" style="stroke:#000000;stroke-width:1.0;stroke-dasharray:2.0,2.0;" width="103" x="863" y="744.532"></rect><text fill="#000000" font-family="sans-serif" font-size="12" font-style="italic" lengthAdjust="spacing" textLength="101" x="864" y="759.4521">boost::asio::ip::tcp</text><line style="stroke:#181818;stroke-width:0.5;" x1="654" x2="962" y1="779.532" y2="779.532"></line><line style="stroke:#181818;stroke-width:0.5;" x1="654" x2="962" y1="787.532" y2="787.532"></line></g><g id="elem_udp_client_endpoint_impl"><rect codeline="112" fill="#F1F1F1" height="48" id="udp_client_endpoint_impl" rx="2.5" ry="2.5" style="stroke:#181818;stroke-width:0.5;" width="319" x="205.5" y="747.532"></rect><ellipse cx="220.5" cy="763.532" fill="#ADD1B2" rx="11" ry="11" style="stroke:#181818;stroke-width:1.0;"></ellipse><path d="M223.4688,769.1726 Q222.8906,769.4695 222.25,769.6101 Q221.6094,769.7664 220.9063,769.7664 Q218.4063,769.7664 217.0781,768.1257 Q215.7656,766.4695 215.7656,763.3445 Q215.7656,760.2195 217.0781,758.5632 Q218.4063,756.907 220.9063,756.907 Q221.6094,756.907 222.25,757.0632 Q222.9063,757.2195 223.4688,757.5164 L223.4688,760.2351 Q222.8438,759.657 222.25,759.3914 Q221.6563,759.1101 221.0313,759.1101 Q219.6875,759.1101 219,760.1882 Q218.3125,761.2507 218.3125,763.3445 Q218.3125,765.4382 219,766.5164 Q219.6875,767.5789 221.0313,767.5789 Q221.6563,767.5789 222.25,767.3132 Q222.8438,767.032 223.4688,766.4539 L223.4688,769.1726 Z " fill="#000000"></path><text fill="#000000" font-family="sans-serif" font-size="14" lengthAdjust="spacing" textLength="179" x="234.5" y="769.636">udp_client_endpoint_impl</text><rect fill="#FFFFFF" height="19.3761" style="stroke:#000000;stroke-width:1.0;stroke-dasharray:2.0,2.0;" width="106" x="421.5" y="744.532"></rect><text fill="#000000" font-family="sans-serif" font-size="12" font-style="italic" lengthAdjust="spacing" textLength="104" x="422.5" y="759.4521">boost::asio::ip::udp</text><line style="stroke:#181818;stroke-width:0.5;" x1="206.5" x2="523.5" y1="779.532" y2="779.532"></line><line style="stroke:#181818;stroke-width:0.5;" x1="206.5" x2="523.5" y1="787.532" y2="787.532"></line></g><g id="link_endpoint_manager_base_local_uds_client_endpoint_impl"><path codeline="116" d="M841,454.032 C770.89,454.032 729.72,543.342 712.91,590.352 " fill="none" id="endpoint_manager_base-to-local_uds_client_endpoint_impl" style="stroke:#181818;stroke-width:1.0;"></path><polygon fill="#181818" points="711.16,595.312,717.9183,588.1478,712.8181,590.5949,710.371,585.4948,711.16,595.312" style="stroke:#181818;stroke-width:1.0;"></polygon></g><g id="link_endpoint_manager_base_local_tcp_client_endpoint_impl"><path codeline="117" d="M841,454.032 C642.53,454.032 419.9,547.232 321.92,593.322 " fill="none" id="endpoint_manager_base-to-local_tcp_client_endpoint_impl" style="stroke:#181818;stroke-width:1.0;"></path><polygon fill="#181818" points="317.35,595.482,327.1964,595.2616,321.8725,593.3496,323.7845,588.0256,317.35,595.482" style="stroke:#181818;stroke-width:1.0;"></polygon></g><g id="link_endpoint_manager_base_local_uds_server_endpoint_impl"><path codeline="118" d="M1297,434.032 C1486.43,434.032 1693.71,541.902 1780.78,592.682 " fill="none" id="endpoint_manager_base-to-local_uds_server_endpoint_impl" style="stroke:#181818;stroke-width:1.0;"></path><polygon fill="#181818" points="1785.34,595.352,1779.5979,587.3502,1781.0263,592.8238,1775.5527,594.2521,1785.34,595.352" style="stroke:#181818;stroke-width:1.0;"></polygon></g><g id="link_endpoint_manager_base_local_tcp_server_endpoint_impl"><path codeline="119" d="M1297,434.032 C1365.57,434.032 1381.91,538.242 1385.79,590.022 " fill="none" id="endpoint_manager_base-to-local_tcp_server_endpoint_impl" style="stroke:#181818;stroke-width:1.0;"></path><polygon fill="#181818" points="1386.15,595.162,1389.4967,585.8992,1385.7927,590.1748,1381.5172,586.4708,1386.15,595.162" style="stroke:#181818;stroke-width:1.0;"></polygon></g><g id="link_endpoint_manager_impl_udp_client_endpoint_impl"><path codeline="121" d="M969,649.532 C949.02,649.532 961.77,676.672 945,687.532 C910.53,709.862 688.73,737.052 529.67,754.082 " fill="none" id="endpoint_manager_impl-to-udp_client_endpoint_impl" style="stroke:#181818;stroke-width:1.0;"></path><polygon fill="#181818" points="524.51,754.632,533.8825,757.658,529.482,754.1034,533.0367,749.7029,524.51,754.632" style="stroke:#181818;stroke-width:1.0;"></polygon></g><g id="link_endpoint_manager_impl_tcp_client_endpoint_impl"><path codeline="122" d="M969,649.532 C949.02,649.532 959.26,673.542 945,687.532 C921.17,710.922 889.56,730.622 862.71,744.962 " fill="none" id="endpoint_manager_impl-to-tcp_client_endpoint_impl" style="stroke:#181818;stroke-width:1.0;"></path><polygon fill="#181818" points="858.1,747.392,867.9266,746.7308,862.5224,745.0591,864.1941,739.6549,858.1,747.392" style="stroke:#181818;stroke-width:1.0;"></polygon></g><g id="link_endpoint_manager_impl_udp_server_endpoint_impl"><path codeline="123" d="M1169,669.532 C1184.53,669.532 1195.11,712.432 1200.59,742.312 " fill="none" id="endpoint_manager_impl-to-udp_server_endpoint_impl" style="stroke:#181818;stroke-width:1.0;"></path><polygon fill="#181818" points="1201.49,747.362,1203.8619,737.803,1200.6194,742.4384,1195.9841,739.1959,1201.49,747.362" style="stroke:#181818;stroke-width:1.0;"></polygon></g><g id="link_endpoint_manager_impl_tcp_server_endpoint_impl"><path codeline="124" d="M1169,669.532 C1182.69,669.532 1181.27,682.492 1194,687.532 C1277.41,720.552 1507.98,744.922 1667.04,758.432 " fill="none" id="endpoint_manager_impl-to-tcp_server_endpoint_impl" style="stroke:#181818;stroke-width:1.0;"></path><polygon fill="#181818" points="1672.2,758.862,1663.5756,754.1059,1667.2184,758.4338,1662.8905,762.0765,1672.2,758.862" style="stroke:#181818;stroke-width:1.0;"></polygon></g><g id="link_endpoint_host_endpoint_manager_base"><path codeline="126" d="M1069,184.812 C1069,206.042 1069,230.422 1069,254.412 " fill="none" id="endpoint_host-backto-endpoint_manager_base" style="stroke:#181818;stroke-width:1.0;"></path><polygon fill="none" points="1062,184.752,1069,164.752,1076,184.752,1062,184.752" style="stroke:#181818;stroke-width:1.0;"></polygon></g><g id="link_endpoint_manager_base_endpoint_manager_impl"><path codeline="127" d="M1069,511.832 C1069,525.552 1069,539.002 1069,551.482 " fill="none" id="endpoint_manager_base-backto-endpoint_manager_impl" style="stroke:#181818;stroke-width:1.0;"></path><polygon fill="none" points="1062,511.632,1069,491.622,1076,511.622,1062,511.632" style="stroke:#181818;stroke-width:1.0;"></polygon></g><g id="link_endpoint_server_endpoint_impl"><path codeline="129" d="M661.72,133.822 C739.35,148.642 871.39,173.712 985,194.532 C1134.64,221.952 1173,223.822 1322,254.532 C1466.59,284.332 1633.27,324.622 1733.27,349.442 " fill="none" id="endpoint-backto-server_endpoint_impl" style="stroke:#181818;stroke-width:1.0;"></path><polygon fill="none" points="660.13,140.642,641.8,130.012,662.76,126.892,660.13,140.642" style="stroke:#181818;stroke-width:1.0;"></polygon></g><g id="link_server_endpoint_impl_local_uds_server_endpoint_impl"><path codeline="130" d="M1823,496.562 C1823,534.282 1823,571.972 1823,595.252 " fill="none" id="server_endpoint_impl-backto-local_uds_server_endpoint_impl" style="stroke:#181818;stroke-width:1.0;"></path><polygon fill="none" points="1816,496.302,1823,476.302,1830,496.302,1816,496.302" style="stroke:#181818;stroke-width:1.0;"></polygon></g><g id="link_server_endpoint_impl_local_tcp_server_endpoint_impl"><path codeline="131" d="M1715.97,434.052 C1623.02,486.172 1493.38,558.872 1428.07,595.502 " fill="none" id="server_endpoint_impl-backto-local_tcp_server_endpoint_impl" style="stroke:#181818;stroke-width:1.0;"></path><polygon fill="none" points="1712.58,427.922,1733.45,424.252,1719.43,440.132,1712.58,427.922" style="stroke:#181818;stroke-width:1.0;"></polygon></g><g id="link_server_endpoint_impl_tcp_server_endpoint_impl"><path codeline="132" d="M1931.25,414.812 C1990.5,443.362 2058.69,487.912 2093,551.532 C2121.69,604.732 2128.76,638.802 2093,687.532 C2067.42,722.392 2027.19,743.002 1985.78,755.072 " fill="none" id="server_endpoint_impl-backto-tcp_server_endpoint_impl" style="stroke:#181818;stroke-width:1.0;"></path><polygon fill="none" points="1928,421.022,1912.78,406.272,1933.87,408.312,1928,421.022" style="stroke:#181818;stroke-width:1.0;"></polygon></g><g id="link_server_endpoint_impl_udp_server_endpoint_impl"><path codeline="133" d="M1930.44,423.312 C1981.1,452.732 2036.56,495.402 2065,551.532 C2078.66,578.492 2085.32,665.162 2065,687.532 C2041.84,713.042 1608.86,744.692 1366.3,760.522 " fill="none" id="server_endpoint_impl-backto-udp_server_endpoint_impl" style="stroke:#181818;stroke-width:1.0;"></path><polygon fill="none" points="1926.83,429.312,1912.78,413.452,1933.65,417.082,1926.83,429.312" style="stroke:#181818;stroke-width:1.0;"></polygon></g><g id="link_endpoint_client_endpoint_impl"><path codeline="135" d="M532.37,169.552 C483.19,207.652 414.1,261.172 359.3,303.622 " fill="none" id="endpoint-backto-client_endpoint_impl" style="stroke:#181818;stroke-width:1.0;"></path><polygon fill="none" points="528.14,163.972,548.23,157.262,536.71,175.042,528.14,163.972" style="stroke:#181818;stroke-width:1.0;"></polygon></g><g id="link_client_endpoint_impl_local_uds_client_endpoint_impl"><path codeline="136" d="M376.79,433.772 C469.06,485.872 598.03,558.692 663.06,595.412 " fill="none" id="client_endpoint_impl-backto-local_uds_client_endpoint_impl" style="stroke:#181818;stroke-width:1.0;"></path><polygon fill="none" points="373.12,439.732,359.15,423.802,380,427.542,373.12,439.732" style="stroke:#181818;stroke-width:1.0;"></polygon></g><g id="link_client_endpoint_impl_local_tcp_client_endpoint_impl"><path codeline="137" d="M271,506.572 C271,540.982 271,574.302 271,595.512 " fill="none" id="client_endpoint_impl-backto-local_tcp_client_endpoint_impl" style="stroke:#181818;stroke-width:1.0;"></path><polygon fill="none" points="264,506.262,271,486.262,278,506.262,264,506.262" style="stroke:#181818;stroke-width:1.0;"></polygon></g><g id="link_client_endpoint_impl_tcp_client_endpoint_impl"><path codeline="138" d="M167.07,442.752 C132.32,471.762 97.69,508.792 79,551.532 C54.78,606.912 38.75,642.442 79,687.532 C88.5,698.172 441.61,734.562 652.84,755.452 " fill="none" id="client_endpoint_impl-backto-tcp_client_endpoint_impl" style="stroke:#181818;stroke-width:1.0;"></path><polygon fill="none" points="163,437.032,182.99,429.992,171.76,447.962,163,437.032" style="stroke:#181818;stroke-width:1.0;"></polygon></g><g id="link_client_endpoint_impl_udp_client_endpoint_impl"><path codeline="139" d="M165.71,430.422 C121.69,460.082 75.21,500.902 51,551.532 C24.93,606.062 14.12,639.642 51,687.532 C71.47,714.112 140.76,733.922 209.05,747.502 " fill="none" id="client_endpoint_impl-backto-udp_client_endpoint_impl" style="stroke:#181818;stroke-width:1.0;"></path><polygon fill="none" points="162.14,424.392,182.73,419.392,169.75,436.142,162.14,424.392" style="stroke:#181818;stroke-width:1.0;"></polygon></g></g></svg>